<?xml version="1.0" encoding="UTF-8" standalone="no"?>
<svg
   xmlns:dc="http://purl.org/dc/elements/1.1/"
   xmlns:cc="http://creativecommons.org/ns#"
   xmlns:rdf="http://www.w3.org/1999/02/22-rdf-syntax-ns#"
   xmlns:svg="http://www.w3.org/2000/svg"
   xmlns="http://www.w3.org/2000/svg"
   xmlns:xlink="http://www.w3.org/1999/xlink"
   id="svg8"
   version="1.1"
   viewBox="0 0 25.400001 25.400179"
   height="25.400181mm"
   width="25.400002mm">
  <defs
     id="defs2">
    <linearGradient
       id="linearGradient3758">
      <stop
         style="stop-color:#ffffff;stop-opacity:0.5"
         offset="0"
         id="stop3754" />
      <stop
         style="stop-color:#000000;stop-opacity:0.50467288"
         offset="1"
         id="stop3756" />
    </linearGradient>
    <linearGradient
       id="linearGradient3688">
      <stop
         style="stop-color:#ffffff;stop-opacity:1;"
         offset="0"
         id="stop3684" />
      <stop
         style="stop-color:#aeaeae;stop-opacity:1"
         offset="1"
         id="stop3686" />
    </linearGradient>
    <linearGradient
       id="linearGradient2825">
      <stop
         style="stop-color:#bcbcbc;stop-opacity:1"
         offset="0"
         id="stop2821" />
      <stop
         style="stop-color:#626262;stop-opacity:1"
         offset="1"
         id="stop2823" />
    </linearGradient>
    <linearGradient
       id="linearGradient1653">
      <stop
         id="stop1649"
         offset="0"
         style="stop-color:#4a77d2;stop-opacity:1" />
      <stop
         id="stop1651"
         offset="1"
         style="stop-color:#1d3a74;stop-opacity:1" />
    </linearGradient>
    <linearGradient
       id="linearGradient5126">
      <stop
         id="stop5122"
         offset="0"
         style="stop-color:#000000;stop-opacity:1;" />
      <stop
         id="stop5124"
         offset="1"
         style="stop-color:#000000;stop-opacity:0.0199005" />
    </linearGradient>
    <linearGradient
       id="linearGradient5106">
      <stop
         id="stop5102"
         offset="0"
         style="stop-color:#ffffff;stop-opacity:1;" />
      <stop
         id="stop5104"
         offset="1"
         style="stop-color:#bebebe;stop-opacity:1" />
    </linearGradient>
    <linearGradient
       id="linearGradient4912">
      <stop
         id="stop4908"
         offset="0"
         style="stop-color:#b3d174;stop-opacity:1" />
      <stop
         id="stop4910"
         offset="1"
         style="stop-color:#668822;stop-opacity:1" />
    </linearGradient>
    <linearGradient
       gradientUnits="userSpaceOnUse"
       y2="-336.31799"
       x2="91.079048"
       y1="-343.15149"
       x1="84.24556"
       id="linearGradient4914"
       xlink:href="#linearGradient4912" />
    <linearGradient
       gradientTransform="translate(-0.56455848,-0.13609674)"
       gradientUnits="userSpaceOnUse"
       y2="-76.523705"
       x2="341.28391"
       y1="-73.567131"
       x1="344.01755"
       id="linearGradient5108"
       xlink:href="#linearGradient5106" />
    <linearGradient
       gradientUnits="userSpaceOnUse"
       y2="-76.659798"
       x2="340.71936"
       y1="-71.929276"
       x1="345.09317"
       id="linearGradient5128"
       xlink:href="#linearGradient5126" />
    <linearGradient
       gradientTransform="matrix(-0.01459638,-0.99989351,-0.99989351,0.01459638,363.78044,796.64788)"
       gradientUnits="userSpaceOnUse"
       y2="-76.523705"
       x2="341.28391"
       y1="-73.567131"
       x1="344.01755"
       id="linearGradient5108-7"
       xlink:href="#linearGradient5106" />
    <linearGradient
       gradientUnits="userSpaceOnUse"
       y2="-76.659798"
       x2="340.71936"
       y1="-71.929276"
       x1="345.09317"
       id="linearGradient5128-9"
       xlink:href="#linearGradient5126"
       gradientTransform="matrix(-0.01459638,-0.99989351,-0.99989351,0.01459638,363.63612,796.08537)" />
    <linearGradient
       gradientUnits="userSpaceOnUse"
       y2="-336.31799"
       x2="91.079048"
       y1="-343.15149"
       x1="84.24556"
       id="linearGradient4914-4"
       xlink:href="#linearGradient2825"
       gradientTransform="translate(320.3365,814.47387)" />
    <linearGradient
       gradientTransform="matrix(-0.01459638,-0.99989351,-0.99989351,0.01459638,351.16221,796.96692)"
       gradientUnits="userSpaceOnUse"
       y2="-76.523705"
       x2="341.28391"
       y1="-73.567131"
       x1="344.01755"
       id="linearGradient5108-9"
       xlink:href="#linearGradient5106" />
    <linearGradient
       gradientUnits="userSpaceOnUse"
       y2="455.67847"
       x2="423.89468"
       y1="449.22202"
       x1="416.70389"
       id="linearGradient5346"
       xlink:href="#linearGradient5126" />
    <linearGradient
       gradientTransform="translate(-0.01757659,-0.01687191)"
       y2="455.67847"
       x2="423.89468"
       y1="449.22202"
       x1="416.70389"
       gradientUnits="userSpaceOnUse"
       id="linearGradient5354"
       xlink:href="#linearGradient5126" />
    <linearGradient
       y2="477.29224"
       x2="398.22559"
       y1="474.40198"
       x1="395.33685"
       gradientUnits="userSpaceOnUse"
       id="linearGradient5356"
       xlink:href="#linearGradient5106" />
    <linearGradient
       y2="477.29224"
       x2="398.22559"
       y1="474.40198"
       x1="395.33685"
       gradientUnits="userSpaceOnUse"
       id="linearGradient5358"
       xlink:href="#linearGradient5106" />
    <linearGradient
       gradientUnits="userSpaceOnUse"
       y2="477.77856"
       x2="398.78174"
       y1="470.9451"
       x1="391.94824"
       id="linearGradient1655"
       xlink:href="#linearGradient1653" />
    <linearGradient
       y2="-336.31799"
       x2="91.079048"
       y1="-343.15149"
       x1="84.24556"
       gradientTransform="translate(311.5025,814.56081)"
       gradientUnits="userSpaceOnUse"
       id="linearGradient2766"
       xlink:href="#linearGradient2825" />
    <linearGradient
       gradientUnits="userSpaceOnUse"
       y2="477.10388"
       x2="401.44263"
       y1="473.68713"
       x1="398.02588"
       id="linearGradient2785"
       xlink:href="#linearGradient5106" />
    <linearGradient
       gradientUnits="userSpaceOnUse"
       y2="-76.659798"
       x2="340.71936"
       y1="-71.929276"
       x1="345.09317"
       id="linearGradient5128-9-8"
       xlink:href="#linearGradient5126"
       gradientTransform="matrix(-0.0145964,-0.99989351,-0.99989351,0.0145964,354.81958,796.64683)" />
    <linearGradient
       gradientTransform="translate(256.9948,-614.62103)"
       y2="477.77856"
       x2="398.78174"
       y1="470.9451"
       x1="391.94824"
       gradientUnits="userSpaceOnUse"
       id="linearGradient2976"
       xlink:href="#linearGradient3758" />
    <linearGradient
       y2="455.67847"
       x2="423.89468"
       y1="449.22202"
       x1="416.70389"
       gradientTransform="translate(223.58188,-627.55861)"
       gradientUnits="userSpaceOnUse"
       id="linearGradient2978"
       xlink:href="#linearGradient5126" />
    <linearGradient
       y2="-76.659798"
       x2="340.71936"
       y1="-71.929276"
       x1="345.09317"
       gradientTransform="matrix(-0.0145964,-0.99989351,-0.99989351,0.0145964,354.81958,796.64683)"
       gradientUnits="userSpaceOnUse"
       id="linearGradient2991"
       xlink:href="#linearGradient5126" />
    <linearGradient
       y2="477.10388"
       x2="401.44263"
       y1="473.68713"
       x1="398.02588"
       gradientUnits="userSpaceOnUse"
       id="linearGradient2993"
       xlink:href="#linearGradient5106" />
    <linearGradient
       y2="455.67847"
       x2="423.89468"
       y1="449.22202"
       x1="416.70389"
       gradientTransform="matrix(14.028167,0.75483564,-0.75483564,14.028167,-5314.5033,-6200.3056)"
       gradientUnits="userSpaceOnUse"
       id="linearGradient3673"
       xlink:href="#linearGradient5126" />
    <linearGradient
       gradientUnits="userSpaceOnUse"
       y2="-171.88013"
       x2="647.47656"
       y1="-176.16301"
       x1="642.68567"
       id="linearGradient3682"
       xlink:href="#linearGradient3688" />
    <linearGradient
       y2="455.67847"
       x2="423.89468"
       y1="449.22202"
       x1="416.70389"
       gradientTransform="matrix(14.028167,0.75483564,-0.75483564,14.028167,-5314.5033,-6200.3056)"
       gradientUnits="userSpaceOnUse"
       id="linearGradient3703"
       xlink:href="#linearGradient5126" />
    <linearGradient
       y2="455.67847"
       x2="423.89468"
       y1="449.22202"
       x1="416.70389"
       gradientTransform="matrix(14.028167,0.75483564,-0.75483564,14.028167,-5314.5033,-6200.3056)"
       gradientUnits="userSpaceOnUse"
       id="linearGradient3705"
       xlink:href="#linearGradient5126" />
    <linearGradient
       y2="-171.88013"
       x2="647.47656"
       y1="-176.16301"
       x1="642.68567"
       gradientUnits="userSpaceOnUse"
       id="linearGradient3707"
       xlink:href="#linearGradient3688" />
    <linearGradient
       y2="477.77856"
       x2="398.78174"
       y1="473.3266"
       x1="394.23093"
       gradientTransform="translate(256.9948,-614.62103)"
       gradientUnits="userSpaceOnUse"
       id="linearGradient3889"
       xlink:href="#linearGradient3758" />
    <linearGradient
       y2="477.23749"
       x2="398.11481"
       y1="471.54706"
       x1="392.52255"
       gradientTransform="translate(256.9948,-614.62103)"
       gradientUnits="userSpaceOnUse"
       id="linearGradient4027"
       xlink:href="#linearGradient3758" />
  </defs>
  <metadata
     id="metadata5">
    <rdf:RDF>
      <cc:Work
         rdf:about="">
        <dc:format>image/svg+xml</dc:format>
        <dc:type
           rdf:resource="http://purl.org/dc/dcmitype/StillImage" />
        <dc:title></dc:title>
      </cc:Work>
    </rdf:RDF>
  </metadata>
  <g
     transform="translate(-3268.1342,1032.2673)"
     id="layer1">
    <g
       style="stroke-width:16;stroke-miterlimit:4;stroke-dasharray:none"
       transform="translate(411.2381,321.27976)"
       id="g4697">
      <g
         transform="translate(252.4881,-243.41667)"
         id="g4717">
        <g
           style="stroke-width:15.58448219"
           id="g4774"
           transform="matrix(3.7116193,0.19971693,-0.19971693,3.7116193,192.29399,-576.08885)">
          <g
             transform="translate(674.96961,-683.61064)"
             id="g2719">
            <rect
               style="fill:none;stroke-width:4.30456018;stroke-linecap:round;stroke-miterlimit:4;stroke-dasharray:none"
               id="rect4802"
               width="220.66475"
               height="220.66475"
               x="490.75894"
               y="355.05524"
               transform="rotate(-3.0800351,-1990.047,7722.8451)" />
            <path
               style="fill:#ffcc00;stroke-width:15.58448219;stroke-linecap:round;stroke-miterlimit:4;stroke-dasharray:none"
               d="m 285.52543,409.28843 c -6.86321,-3.29117 -19.74346,-5.30573 -27.31613,-12.31667 -27.49855,-16.6715 -21.40396,-9.13615 -67.14755,7.9411 -13.56965,4.78765 -23.35739,4.50493 -38.35922,-1.10796 -14.41328,-5.39271 -29.19997,-19.42528 -37.21954,-35.32133 -7.95193,-15.76203 -8.94571,-41.73006 -2.27364,-59.41181 14.41512,-38.2017 61.25418,-63.8331 102.6954,-56.19725 58.86727,10.84672 100.64034,71.63777 90.67814,131.96113 -1.52892,9.25796 -4.08464,19.89359 -5.67937,23.63473 l -2.89954,6.80206 z"
               id="path4768" />
            <path
               transform="rotate(63.846766,39.103619,49.363805)"
               d="m 352.1793,76.516328 c 7.42889,3.731766 15.81504,4.137405 23.19066,1.70486 8.36985,-2.730557 14.06871,-9.09369 16.42101,-15.845503 1.97182,-5.884938 1.03573,-11.38337 -0.76501,-15.237935 0,0 0,-3e-6 0,-3e-6 -1.96227,-4.251786 -5.12684,-6.480475 -7.14037,-7.470838 -2.11334,-1.039453 -3.38963,-1.106058 -3.38963,-1.106058 0,0 1.08459,0.703611 2.3781,2.377877 1.28792,1.667036 2.68188,4.356399 2.81344,7.688254 0,1e-6 0,3e-6 0,3e-6 0.13938,3.127084 -0.75053,6.720441 -2.88714,9.489194 -2.42296,3.333582 -6.66515,5.651201 -11.03226,6.227251 -4.1494,0.565874 -8.70771,-0.239038 -12.37828,-2.110251 -7e-5,-3.7e-5 -1.5e-4,-7.4e-5 -2.2e-4,-1.11e-4 -2.89459,-1.461325 -5.16297,-3.431192 -6.95595,-5.818151 -1.79298,-2.386959 -3.09298,-5.207966 -3.84218,-8.277751 -1.49839,-6.139569 -0.68521,-13.215846 2.36029,-18.95617 2.24372,-4.229074 5.25142,-7.580365 8.83114,-10.188779 3.57972,-2.608415 7.74621,-4.457322 12.21557,-5.491742 8.93872,-2.068839 19.02758,-0.782524 27.30639,3.788638 11.63501,6.424294 18.72935,17.178966 21.45297,29.503929 2.72363,12.324963 0.82953,26.052949 -5.63285,37.379081 -8.76872,15.368273 -23.25905,24.730757 -39.61304,28.200537 -16.35398,3.46979 -34.4048,0.81924 -49.33367,-7.936 C 306.47241,92.879888 294.48569,73.998226 290.17159,52.916681 285.8575,31.835137 289.42739,8.7203093 300.9135,-10.41327 c 14.82489,-24.695294 38.80754,-39.690611 65.37097,-44.953779 26.56344,-5.263168 55.54116,-0.596717 79.52795,14.094901 13.44782,8.236634 25.20158,19.249991 34.44018,32.0855073 0.10131,0.140744 6.7211,-4.3555163 6.7211,-4.3555163 0,0 6.39216,-4.814539 6.26487,-4.991383 -10.45987,-14.53227 -23.74936,-26.999485 -39.06928,-36.382751 -27.57329,-16.888313 -60.50779,-22.186166 -90.99454,-16.14565 -30.48674,6.040515 -58.69222,23.616868 -75.97924,52.413592 -13.64278,22.726142 -17.81521,49.771888 -12.69907,74.772769 5.11614,25.000882 19.73222,48.1235 43.58768,62.11386 18.52819,10.86611 40.47997,14.08633 60.74859,9.78598 20.26861,-4.30034 39.02089,-16.34889 50.18928,-35.92288 8.52038,-14.933026 10.94637,-32.526882 7.35892,-48.760799 C 432.79346,27.106665 422.94557,12.06542 407.0387,3.2824068 c -11.89428,-6.5674509 -25.8073,-8.3418165 -38.64801,-5.3698726 -6.42036,1.48597201 -12.58796,4.1828224 -18.03031,8.1484721 -5.44235,3.9656497 -10.1447,9.2167317 -13.5426,15.6212777 -4.96886,9.365582 -6.21865,20.215593 -3.77008,30.248428 1.22428,5.016418 3.40025,9.843142 6.59305,14.09366 3.19279,4.250518 7.42,7.907875 12.53811,10.491735 1.4e-4,7.4e-5 2.9e-4,1.48e-4 4.4e-4,2.21e-4 z"
               id="path4770"
               style="fill:#000000;fill-rule:nonzero;stroke:none;stroke-width:15.58448219;stroke-linecap:round;stroke-miterlimit:4;stroke-dasharray:none" />
            <path
               transform="matrix(-1.2636006,-0.27858995,0.29806104,-1.1810547,788.10275,579.94607)"
               d="m 395.72373,42.630489 c 22.41761,-0.459361 44.34098,8.633441 60.32427,24.267248"
               id="path4772"
               style="fill:none;fill-rule:evenodd;stroke:#000000;stroke-width:12.41636467;stroke-miterlimit:4;stroke-dasharray:none" />
          </g>
          <g
             id="g2756"
             transform="translate(-46.23111,-783.39554)">
            <g
               transform="translate(486.52668,226.07651)"
               id="g2729">
              <g
                 id="g2739"
                 transform="matrix(0.06400496,0,0,0.06400496,194.12427,315.10015)"
                 style="stroke-width:243.48867798">
                <rect
                   transform="rotate(-3.0800351,-1990.047,7722.8451)"
                   y="355.05524"
                   x="490.75894"
                   height="220.66475"
                   width="220.66475"
                   id="rect2721"
                   style="fill:none;stroke-width:67.25354767;stroke-linecap:round;stroke-miterlimit:4;stroke-dasharray:none" />
                <path
                   transform="matrix(0.07107935,-0.00382468,0.00382468,0.07107935,-77.516171,221.72541)"
                   id="path2734"
                   d="M 4977.5584,2881.4337 C 4733.4575,2774.735 4529.6507,2609.8369 4376.6732,2395.2634 l -28.252,-39.6276 7.0047,-20.3724 c 32.3917,-94.2072 45.1573,-241.953 29.883,-345.859 -21.5937,-146.8956 -81.1853,-280.8104 -174.0528,-391.1337 -130.4965,-155.025 -335.7141,-246.6564 -527.6281,-235.5906 -241.3302,13.9153 -445.254,159.5849 -519.5208,371.1114 -18.2966,52.1123 -25.923,97.743 -26.2566,157.0995 -0.3264,58.1075 4.9881,91.326 22.7184,142 37.6961,107.7373 106.6338,187.4415 200.9894,232.3795 54.2423,25.8334 78.8198,31.8704 140.1733,34.4308 44.6665,1.864 57.0404,0.958 86,-6.2964 112.3899,-28.154 194.1314,-115.0278 202.5337,-215.2501 1.3035,-15.5481 1.0776,-35.1579 -0.5019,-43.5773 l -2.8718,-15.3082 -15.5165,33.0108 c -19.4559,41.3917 -47.7777,70.2484 -88.7258,90.4014 -81.0288,39.8792 -170.5018,23.489 -237.3518,-43.4795 -43.9177,-43.9955 -68.0354,-94.296 -78.0494,-162.7821 -19.3625,-132.4215 63.3547,-261.2184 204.3334,-318.1622 100.9845,-40.7894 211.4544,-36.2956 315.3829,12.8295 166.0531,78.4902 276.5064,264.2063 276.5778,465.0376 0.066,186.3904 -93.6969,364.1976 -255.1984,483.9437 -143.3309,106.2734 -337.4913,159.5943 -511.9431,140.5915 -392.9409,-42.8026 -701.9629,-366.7253 -759.1656,-795.7719 -8.025,-60.191 -9.0058,-173.443 -1.9919,-229.9971 23.4294,-188.9137 98.6232,-370.9644 215.6057,-522 14.4838,-18.7 49.8187,-58.0801 78.5218,-87.5115 187.8267,-192.59146 422.3496,-311.16368 706.1876,-357.04085 65.323,-10.55824 218.6136,-14.57302 291.043,-7.62262 257.2881,24.68962 498.0322,123.72409 706.957,290.81967 56.814,45.4392 158.6497,146.9054 205.3859,204.6406 191.7764,236.9098 307.155,513.572 343.1031,822.7147 8.6276,74.1948 9.7901,241.2642 2.1848,314 -12.4197,118.7805 -37.8531,235.7399 -76.5441,352 -26.546,79.7664 -75.0352,196.0554 -81.6797,195.8878 -2.4475,-0.062 -24.25,-8.767 -48.45,-19.3451 z"
                   style="fill:#ffcc00;fill-opacity:1;stroke:#ffcc00;stroke-width:67.18230438;stroke-linecap:round;stroke-miterlimit:4;stroke-dasharray:none" />
                <path
                   id="path2725"
                   transform="matrix(0.07107935,-0.00382468,0.00382468,0.07107935,-77.516171,221.72541)"
                   d="m 3812.3027,488.5 c -301.4995,0.10032 -595.656,94.04689 -837.6152,261.20312 -294.9598,203.77142 -513.3405,519.98578 -562.8203,905.33598 -38.4303,299.2957 40.8093,600.7447 207.9824,839.0332 167.1731,238.2884 426.1405,414.3192 740.6172,450.8984 239.9147,27.9064 480.666,-37.6042 670.7324,-173.3496 76.2891,-54.4857 144.5298,-120.96 200.584,-197.4297 218.7412,281.0678 534.2983,492.6981 896.4961,585.7578 l 0.2832,-0.9863 c 8.9058,4.6379 14.9944,7.4986 15.3789,6.8633 130.2357,-215.2004 218.2021,-455.6036 255.1309,-705.2696 66.4656,-449.357 -46.3885,-904.1914 -292.3106,-1264.9648 C 4860.8397,834.8184 4478.3822,567.0431 4011.0176,502.16016 3944.7416,492.95924 3878.3455,488.47803 3812.3027,488.5 Z m 7.3828,224.91016 c 53.4444,0.23987 107.0489,3.97904 160.4219,11.38867 400.7993,55.64186 726.6512,283.05067 940.9258,597.39647 214.2746,314.3459 313.5039,714.5644 255.6836,1105.4727 -24.4482,165.2877 -74.6213,326.8137 -147.1543,477.7773 -281.7525,-108.7376 -523.2579,-304.7458 -682.6875,-550.0176 20.1021,-58.0721 33.9598,-119.4306 40.5137,-183.5937 19.3958,-189.8878 -34.2726,-379.4771 -143.3809,-529.0762 -54.5541,-74.7995 -123.3654,-139.665 -204.584,-188.1719 -81.2185,-48.5068 -174.9766,-80.3721 -276.4609,-89.0273 -148.4039,-12.6569 -295.5191,30.926 -411.709,117.8105 -58.0949,43.4423 -108.4975,98.1408 -145.8555,162.8086 -37.3579,64.6679 -61.3555,139.4387 -66.5722,219.8145 v 0.01 c -7.3306,116.5618 33.5988,227.1826 105.6465,309.1172 81.3732,93.1438 194.9911,131.7668 295.207,124.9961 86.917,-6.9156 152.8278,-49.2874 192.7324,-93.7832 44.1492,-48.7707 55.5319,-101.9431 57.2461,-133.4199 1.7992,-33.0371 -4.3672,-49.8985 -4.3672,-49.8985 0,0 -3.123,17.892 -17.6406,43.8281 -14.455,25.8242 -41.5382,58.6469 -83.877,78.6914 0,0 0,0 0,0 -39.6491,19.0183 -90.9904,27.3009 -138.5391,14.9297 -56.4254,-12.9621 -109.7354,-55.0309 -141.2246,-108.3027 -30.159,-50.5141 -44.8527,-113.8603 -40.8769,-171.6035 v 0 c 2.9504,-45.4572 15.9213,-85.6201 36.9003,-121.9356 20.9791,-36.3154 50.281,-68.6499 85.8321,-95.2343 71.1021,-53.1688 167.0388,-81.619 257.998,-73.8614 67.0125,5.7153 126.885,26.1375 180.3067,58.043 53.4216,31.9055 100.2579,75.5768 138.2343,127.6465 75.9528,104.1394 114.8752,241.617 101.375,373.7851 -18.973,185.7486 -118.9144,336.6516 -263.2148,439.711 -144.3004,103.0593 -332.1588,154.162 -514.125,132.9961 -246.9074,-28.7198 -447.6943,-164.4566 -582.5801,-356.7227 -134.8857,-192.266 -200.0096,-440.1584 -169.0449,-681.3125 40.8729,-318.3194 218.9171,-577.2007 467.6367,-749.02733 205.9709,-142.29389 459.732,-222.38429 717.2363,-221.22851 z"
                   style="fill:#000000;fill-rule:nonzero;stroke:none;stroke-width:3420.64111328;stroke-linecap:round;stroke-miterlimit:4;stroke-dasharray:none" />
              </g>
            </g>
          </g>
          <g
             id="g5317"
             transform="translate(208.36116,-656.37634)">
            <g
               id="g5352">
              <rect
                 style="fill:url(#linearGradient1655);fill-opacity:1;stroke:none;stroke-width:0.30608335;stroke-linecap:round;stroke-miterlimit:4;stroke-dasharray:none"
                 id="rect4906"
                 width="6.8334889"
                 height="6.8334889"
                 x="391.94824"
                 y="470.94516"
                 ry="0"
                 transform="rotate(-3.0800337)" />
              <path
                 id="path5338"
                 d="m 418.66461,454.08346 1.49226,-4.19703 3.58316,3.22766 0.13708,2.54752 -3.19088,0.17168 z"
                 style="fill:url(#linearGradient5354);fill-opacity:1;stroke:none;stroke-width:0.07118218px;stroke-linecap:butt;stroke-linejoin:miter;stroke-opacity:1" />
              <g
                 id="text5321"
                 style="font-style:normal;font-weight:normal;font-size:7.00767946px;line-height:1.25;font-family:sans-serif;letter-spacing:0px;word-spacing:0px;fill:url(#linearGradient5358);fill-opacity:1;stroke:none;stroke-width:1.10933733"
                 transform="rotate(-3.0800353,-0.32256927,0.3184505)"
                 aria-label="♠">
                <path
                   id="path5333"
                   style="fill:url(#linearGradient5356);fill-opacity:1;stroke-width:1.10933733"
                   d="m 395.3938,471.82973 q 0.32164,0.57143 1.06073,1.51582 0.81095,0.95124 0.83148,1.14628 0.13345,0.29085 0.13345,0.56458 v 0.13687 q 0,0.57143 -0.55432,0.89991 -0.18135,0.0753 -0.40034,0.0753 -0.52695,0 -0.85201,-0.7562 h -0.14371 v 0.0411 q 0,0.96835 0.284,1.48161 h -0.73567 v -0.0205 q 0.29085,-0.51668 0.29085,-1.49187 l -0.0103,-0.0103 h -0.13002 l -0.16082,0.30111 q -0.29085,0.45509 -0.72541,0.45509 -0.63986,0 -0.89991,-0.71514 l -0.0308,-0.24978 v -0.1574 q 0,-0.62618 0.63987,-1.32079 1.07784,-1.32078 1.38237,-1.88536 l 0.0103,-0.0103 z" />
              </g>
            </g>
          </g>
          <g
             id="g5312"
             transform="translate(216.31859,-654.90124)">
            <rect
               transform="rotate(-3.0800337)"
               ry="0"
               y="471.32239"
               x="404.58203"
               height="6.8334889"
               width="6.8334889"
               id="rect4906-5"
               style="fill:url(#linearGradient4914-4);fill-opacity:1;stroke:none;stroke-width:0.30608335;stroke-linecap:round;stroke-miterlimit:4;stroke-dasharray:none" />
            <path
               id="path5120-5"
               d="m 430.76541,454.52813 1.19844,1.07611 4.54908,-0.2448 -0.24478,-4.54906 -1.19845,-1.0761 -2.07941,1.16345 -1.10495,-0.99211 0.82447,2.49639 z"
               style="fill:url(#linearGradient5128-9);fill-opacity:1;stroke:none;stroke-width:0.07118217px;stroke-linecap:butt;stroke-linejoin:miter;stroke-miterlimit:4;stroke-dasharray:none;stroke-opacity:1" />
            <path
               id="path4929-5"
               d="m 430.52063,449.97904 1.71457,2.18887 -1.46979,2.36021 1.36473,-0.0734 0.83988,-1.34866 0.97975,1.25074 1.36472,-0.0734 -1.71456,-2.18887 1.46979,-2.3602 -1.36473,0.0734 -0.83988,1.34867 -0.97975,-1.25075 z"
               style="fill:url(#linearGradient5108-7);fill-opacity:1;stroke:none;stroke-width:0.07118218px;stroke-linecap:butt;stroke-linejoin:miter;stroke-miterlimit:4;stroke-dasharray:none;stroke-opacity:1" />
          </g>
          <g
             transform="translate(216.03698,-654.97311)"
             id="g2819">
            <rect
               style="fill:url(#linearGradient2766);fill-opacity:1;stroke:none;stroke-width:0.30608335;stroke-linecap:round;stroke-miterlimit:4;stroke-dasharray:none"
               id="rect2758"
               width="6.8334889"
               height="6.8334889"
               x="395.74802"
               y="471.40933"
               ry="0"
               transform="rotate(-3.0800337)" />
            <path
               style="fill:url(#linearGradient2991);fill-opacity:1;stroke:none;stroke-width:0.07118217px;stroke-linecap:butt;stroke-linejoin:miter;stroke-miterlimit:4;stroke-dasharray:none;stroke-opacity:1"
               d="m 422.51747,455.05898 1.19849,1.07609 3.98042,-0.21418 -0.1778,-3.30443 -2.11239,-1.89666 -1.39699,0.26696 -0.94041,-0.51969 -0.10507,2.28679 z"
               id="path5120-5-3" />
            <text
               transform="rotate(-3.0800352)"
               id="text2774"
               y="477.10385"
               x="396.98148"
               style="font-style:normal;font-variant:normal;font-weight:bold;font-stretch:normal;font-size:6.2491703px;line-height:1.25;font-family:'Nimbus Sans L';-inkscape-font-specification:'Nimbus Sans L Bold';letter-spacing:0px;word-spacing:0px;fill:url(#linearGradient2993);fill-opacity:1;stroke:none;stroke-width:1.10933733"
               xml:space="preserve"><tspan
                 style="font-style:normal;font-variant:normal;font-weight:bold;font-stretch:normal;font-family:'Nimbus Sans L';-inkscape-font-specification:'Nimbus Sans L Bold';fill:url(#linearGradient2993);fill-opacity:1;stroke-width:1.10933733"
                 y="477.10385"
                 x="396.98148"
                 id="tspan2772">P</tspan></text>
          </g>
          <g
             id="g3701">
            <g
               id="g3766">
              <g
                 id="g3899">
                <g
                   id="g4037">
                  <rect
                     transform="rotate(-3.0800337)"
                     ry="0"
                     y="-143.67586"
                     x="648.94305"
                     height="6.8334889"
                     width="6.8334889"
                     id="rect3752"
                     style="fill:#000000;fill-opacity:1;stroke:none;stroke-width:0.30608335;stroke-linecap:round;stroke-miterlimit:4;stroke-dasharray:none" />
                  <rect
                     style="fill:url(#linearGradient4027);fill-opacity:1;stroke:none;stroke-width:0.30608335;stroke-linecap:round;stroke-miterlimit:4;stroke-dasharray:none"
                     id="rect4906-59"
                     width="6.8334889"
                     height="6.8334889"
                     x="648.94305"
                     y="-143.67586"
                     ry="0"
                     transform="rotate(-3.0800337)" />
                  <path
                     id="path3694"
                     transform="matrix(0.07107935,-0.00382468,0.00382468,0.07107935,625.04749,-207.17119)"
                     d="m 244.69531,438.53906 c 4.25245,4.42092 6.88717,10.61774 6.88672,18.09961 -1.1e-4,13.75744 -8.43509,22.8689 -19.49805,25.04883 0.001,8e-5 -0.26966,0.0996 -0.3125,0.11133 8.17142,0.25398 19.1016,1.29077 26.92383,1.29101 6.4217,2e-5 11.11998,-0.46251 14.19336,-0.93164 1.53672,-0.23245 2.68655,-0.47804 3.42578,-0.64648 0.371,-0.0968 0.62657,-0.1255 0.81055,-0.17188 0.19475,-0.0374 0.66016,-0.19336 0.66016,-0.19336 l 2.20507,-0.70117 c 0,0 -0.2269,1.27856 -0.35937,1.91016 -0.0788,0.34044 -0.26072,0.86489 -0.27734,1.01172 -0.26514,0.89049 -1.3121,3.85904 -4.3086,6.76367 -3.03287,2.93996 -8.05515,5.68256 -15.81445,5.86719 -5.60392,0.13417 -11.03546,-2.42139 -16.25586,-4.84961 -5.22042,-2.42794 -10.23491,-4.69931 -14.59961,-4.69922 -2.39675,-1e-4 -4.42003,1.16033 -5.72461,2.1875 l -0.0605,0.0527 -2.55664,2.26563 c -0.6019,0.54019 -1.49455,0.55505 -2.11523,0.0703 L 238.89258,512 H 288 v -30.16602 l -43.29297,-43.29296 c -0.004,-6.7e-4 -0.008,-10e-4 -0.0117,-0.002 z"
                     style="fill:url(#linearGradient3703);fill-opacity:1;stroke:none;stroke-width:1px;stroke-linecap:butt;stroke-linejoin:miter;stroke-miterlimit:4;stroke-dasharray:none;stroke-opacity:1" />
                  <path
                     id="path3692"
                     transform="matrix(0.07107935,-0.00382468,0.00382468,0.07107935,625.04749,-207.17119)"
                     d="m 226.59961,438.83008 c -4.89452,-2.8e-4 -9.21596,1.57627 -12.32227,4.54492 -3.10603,2.9688 -5.05959,7.33932 -5.05859,13.25586 -1.1e-4,11.23701 7.64382,17.80879 17.375,17.82031 4.88455,-1.1e-4 9.1927,-1.61305 12.29687,-4.60742 3.1032,-2.99456 5.05673,-7.37454 5.05469,-13.19336 -1.5e-4,-11.25039 -7.62718,-17.81932 -17.3457,-17.82031 z"
                     style="fill:url(#linearGradient3705);fill-opacity:1;stroke:none;stroke-width:1px;stroke-linecap:butt;stroke-linejoin:miter;stroke-miterlimit:4;stroke-dasharray:none;stroke-opacity:1" />
                  <path
                     id="path5338-3"
                     transform="matrix(0.07107935,-0.00382468,0.00382468,0.07107935,625.04749,-207.17119)"
                     d="m 208.79688,475.02539 0.004,0.0176 9.92383,9.92578 3.4707,-3.20508 c -5.17355,-0.84456 -9.8243,-3.1861 -13.39843,-6.73828 z"
                     style="fill:url(#linearGradient3673);fill-opacity:1;stroke:none;stroke-width:1px;stroke-linecap:butt;stroke-linejoin:miter;stroke-miterlimit:4;stroke-dasharray:none;stroke-opacity:1" />
                  <path
                     id="path2895"
                     d="m 642.79967,-177.39801 c -0.48403,0.026 -0.92149,0.21036 -1.22874,0.5388 -0.30725,0.32844 -0.47997,0.8 -0.449,1.37547 0.0529,0.98282 0.72936,1.61592 1.56165,1.70621 l -0.38767,0.39862 c -0.0455,0.0465 -0.0445,0.12119 0.002,0.16646 l 0.10294,0.0985 c 0.0462,0.0441 0.11924,0.043 0.16426,-0.002 l 0.17304,-0.17084 0.004,-0.004 c 0.0888,-0.078 0.22826,-0.16824 0.39862,-0.1774 0.31024,-0.0167 0.67536,0.12553 1.05571,0.27814 0.38035,0.15263 0.77615,0.31352 1.17396,0.28255 0.55082,-0.0428 0.89738,-0.25691 1.10171,-0.47748 0.20188,-0.21792 0.26491,-0.43288 0.28035,-0.49719 6.2e-4,-0.0105 0.0115,-0.0485 0.0158,-0.073 0.007,-0.0454 0.0182,-0.13715 0.0182,-0.13715 l -0.15398,0.0583 v 0 c 0,0 -0.0325,0.0128 -0.0462,0.0162 -0.0129,0.004 -0.031,0.007 -0.057,0.0153 -0.0519,0.0148 -0.1326,0.0367 -0.24094,0.0591 -0.21666,0.0451 -0.54887,0.0959 -1.00532,0.12046 -0.556,0.0299 -1.33687,-0.002 -1.91866,0.0112 0.003,-0.001 0.0219,-0.009 0.0218,-0.009 0.77801,-0.19726 1.34268,-0.87726 1.29007,-1.85513 -0.0594,-1.10514 -0.90491,-1.77386 -1.87705,-1.72154 z m 0.0328,0.55195 c 0.69079,-0.0371 1.25798,0.40057 1.30102,1.20024 0.0224,0.41359 -0.0997,0.73243 -0.30882,0.95715 -0.20919,0.22471 -0.5092,0.35584 -0.85639,0.37453 -0.69173,0.0364 -1.26023,-0.40154 -1.3032,-1.20026 -0.0227,-0.42054 0.0994,-0.73862 0.30882,-0.96152 0.20944,-0.22289 0.51067,-0.35144 0.85857,-0.37014 z"
                     style="fill:url(#linearGradient3707);fill-opacity:1;stroke:none;stroke-width:1.10933721" />
                </g>
              </g>
            </g>
          </g>
        </g>
      </g>
    </g>
  </g>
</svg>
